<?xml version="1.0" encoding="utf-8"?>
<!-- Generator: Adobe Illustrator 21.0.2, SVG Export Plug-In . SVG Version: 6.00 Build 0)  -->
<svg fill="#A1A9AF" version="1.1" id="Layer_1" xmlns="http://www.w3.org/2000/svg" xmlns:xlink="http://www.w3.org/1999/xlink" x="0px" y="0px"
	 viewBox="0 0 100 100" style="enable-background:new 0 0 100 100;" xml:space="preserve">
<path id="info-small" class="st0" d="M100,50c0-27.6-22.4-50-50-50S0,22.4,0,50c0,27.6,22.4,50,50,50S100,77.6,100,50z M57.1,28.6
	c0,3.9-3.2,7.1-7.1,7.1s-7.1-3.2-7.1-7.1c0-3.9,3.2-7.1,7.1-7.1S57.1,24.6,57.1,28.6z M57.1,71.4c0,3.9-3.2,7.1-7.1,7.1
	s-7.1-3.2-7.1-7.1V50c0-3.9,3.2-7.1,7.1-7.1s7.1,3.2,7.1,7.1V71.4z"/>
</svg>
